<?xml version="1.0" encoding="UTF-8" standalone="no"?>
<svg
   id="Layer_1"
   viewBox="0 0 1466.87 1500"
   version="1.1"
   sodipodi:docname="singularity.svg"
   inkscape:version="1.2.2 (b0a8486541, 2022-12-01)"
   xmlns:inkscape="http://www.inkscape.org/namespaces/inkscape"
   xmlns:sodipodi="http://sodipodi.sourceforge.net/DTD/sodipodi-0.dtd"
   xmlns="http://www.w3.org/2000/svg"
   xmlns:svg="http://www.w3.org/2000/svg">
  <sodipodi:namedview
     id="namedview1355"
     pagecolor="#ffffff"
     bordercolor="#000000"
     borderopacity="0.25"
     inkscape:showpageshadow="2"
     inkscape:pageopacity="0.0"
     inkscape:pagecheckerboard="0"
     inkscape:deskcolor="#d1d1d1"
     showgrid="false"
     inkscape:zoom="0.68466667"
     inkscape:cx="733.93379"
     inkscape:cy="751.46056"
     inkscape:window-width="3774"
     inkscape:window-height="2091"
     inkscape:window-x="0"
     inkscape:window-y="0"
     inkscape:window-maximized="1"
     inkscape:current-layer="Layer_1" />
  <defs
     id="defs1346">
    <style
       id="style1344">.cls-1{fill:#f49300;}.cls-2{fill:#fff;}.cls-3{fill:#bbbdbf;}.cls-4{fill:#162c50;}.cls-5{fill:#23a0da;}.cls-6{fill:#88c233;}</style>
  </defs>
  <path
     id="Path_130"
     class="cls-5"
     d="m731.57,108.1c-344.71,1.04-623.98,286.53-625.3,639.09h129.05c1.32-278.71,222.86-504.32,496.22-505.01l.02-134.08Z" />
  <path
     id="Path_131"
     class="cls-6"
     d="m760.38,108.68v134.27c261.13,14.57,468.64,234.53,469.91,504.24h130.33c-1.29-343.97-267.16-624.11-600.24-638.51Z" />
  <path
     id="Path_132"
     class="cls-3"
     d="m731.56,1257.21c-265.13-.66-481.51-212.89-495.52-479.95H106.82c14.09,340.93,288.24,613.01,624.74,614.03v-134.08Z" />
  <path
     id="Path_133"
     class="cls-1"
     d="m1229.58,777.26c-13.54,258.16-216.2,465.08-469.19,479.18v134.26c324.95-14.05,585.94-281.02,599.68-613.44h-130.48Z" />
  <path
     id="Path_134"
     class="cls-4"
     d="m865.66,674.5s-30.08-11.28-75.19-30.07c-60.15-25.06-48.88-51.38-48.88-51.38,0,0,12.54-43.86,86.46-28.82,77.16,15.69,134.1,96.49,134.1,96.49l73.93-211.78c-114.04-46.37-285.14-48.57-358.4-41.35-165.41,16.29-234.33,113.79-234.33,212.41,0,75.51,27.57,130.95,92.07,166.19,76.76,47.92,146.62,51.89,166.08,87.57,25.77,47.25-35.09,56.39-35.09,56.39-100.24,7.52-177.94-104.01-177.94-104.01l-72.69,221.8c281.96,95.24,476.19,30.08,476.19,30.08,88.97-30.08,157.89-91.48,157.89-195.49-.03-102.42-58.92-162.9-184.22-208.02Z" />
</svg>
